<mxfile host="app.diagrams.net" modified="2021-05-12T13:24:24.054Z" agent="5.0 (Windows NT 10.0; Win64; x64) AppleWebKit/537.36 (KHTML, like Gecko) Chrome/89.0.4389.128 Safari/537.36" etag="3UKYq1_imkWzLq_5cbFz" version="14.6.6" type="github">
  <diagram id="aoj3swG1tekXxO3n4QQ1" name="Page-1">
    <mxGraphModel dx="1422" dy="762" grid="1" gridSize="10" guides="1" tooltips="1" connect="1" arrows="1" fold="1" page="1" pageScale="1" pageWidth="850" pageHeight="1100" math="0" shadow="0">
      <root>
        <mxCell id="0" />
        <mxCell id="1" parent="0" />
        <mxCell id="P-YQNoCspB-iHP5CTMSX-3" style="edgeStyle=orthogonalEdgeStyle;rounded=0;orthogonalLoop=1;jettySize=auto;html=1;" edge="1" parent="1" source="P-YQNoCspB-iHP5CTMSX-2" target="P-YQNoCspB-iHP5CTMSX-1">
          <mxGeometry relative="1" as="geometry" />
        </mxCell>
        <mxCell id="P-YQNoCspB-iHP5CTMSX-2" value="" style="rounded=1;whiteSpace=wrap;html=1;" vertex="1" parent="1">
          <mxGeometry x="440" y="130" width="150" height="310" as="geometry" />
        </mxCell>
        <mxCell id="z3XUsXF2Qn8Yz3vl9ZlV-6" value="" style="edgeStyle=orthogonalEdgeStyle;rounded=0;orthogonalLoop=1;jettySize=auto;html=1;" parent="1" source="z3XUsXF2Qn8Yz3vl9ZlV-1" target="z3XUsXF2Qn8Yz3vl9ZlV-5" edge="1">
          <mxGeometry relative="1" as="geometry" />
        </mxCell>
        <mxCell id="z3XUsXF2Qn8Yz3vl9ZlV-1" value="User" style="rounded=1;whiteSpace=wrap;html=1;" parent="1" vertex="1">
          <mxGeometry x="160" y="160" width="120" height="60" as="geometry" />
        </mxCell>
        <mxCell id="z3XUsXF2Qn8Yz3vl9ZlV-10" style="edgeStyle=orthogonalEdgeStyle;rounded=0;orthogonalLoop=1;jettySize=auto;html=1;entryX=0.5;entryY=0;entryDx=0;entryDy=0;" parent="1" source="z3XUsXF2Qn8Yz3vl9ZlV-2" target="z3XUsXF2Qn8Yz3vl9ZlV-5" edge="1">
          <mxGeometry relative="1" as="geometry" />
        </mxCell>
        <mxCell id="z3XUsXF2Qn8Yz3vl9ZlV-2" value="User" style="rounded=1;whiteSpace=wrap;html=1;" parent="1" vertex="1">
          <mxGeometry x="160" y="250" width="120" height="60" as="geometry" />
        </mxCell>
        <mxCell id="z3XUsXF2Qn8Yz3vl9ZlV-9" style="edgeStyle=orthogonalEdgeStyle;rounded=0;orthogonalLoop=1;jettySize=auto;html=1;entryX=0.5;entryY=0;entryDx=0;entryDy=0;" parent="1" source="z3XUsXF2Qn8Yz3vl9ZlV-3" target="z3XUsXF2Qn8Yz3vl9ZlV-5" edge="1">
          <mxGeometry relative="1" as="geometry" />
        </mxCell>
        <mxCell id="z3XUsXF2Qn8Yz3vl9ZlV-3" value="User" style="rounded=1;whiteSpace=wrap;html=1;" parent="1" vertex="1">
          <mxGeometry x="160" y="370" width="120" height="60" as="geometry" />
        </mxCell>
        <mxCell id="z3XUsXF2Qn8Yz3vl9ZlV-4" value="..." style="text;html=1;strokeColor=none;fillColor=none;align=center;verticalAlign=middle;whiteSpace=wrap;rounded=0;rotation=-90;" parent="1" vertex="1">
          <mxGeometry x="200" y="330" width="40" height="20" as="geometry" />
        </mxCell>
        <mxCell id="z3XUsXF2Qn8Yz3vl9ZlV-15" style="edgeStyle=orthogonalEdgeStyle;rounded=0;orthogonalLoop=1;jettySize=auto;html=1;entryX=0;entryY=0.5;entryDx=0;entryDy=0;" parent="1" source="z3XUsXF2Qn8Yz3vl9ZlV-5" target="z3XUsXF2Qn8Yz3vl9ZlV-11" edge="1">
          <mxGeometry relative="1" as="geometry" />
        </mxCell>
        <mxCell id="z3XUsXF2Qn8Yz3vl9ZlV-16" style="edgeStyle=orthogonalEdgeStyle;rounded=0;orthogonalLoop=1;jettySize=auto;html=1;entryX=0;entryY=0.5;entryDx=0;entryDy=0;" parent="1" source="z3XUsXF2Qn8Yz3vl9ZlV-5" target="z3XUsXF2Qn8Yz3vl9ZlV-12" edge="1">
          <mxGeometry relative="1" as="geometry" />
        </mxCell>
        <mxCell id="z3XUsXF2Qn8Yz3vl9ZlV-17" style="edgeStyle=orthogonalEdgeStyle;rounded=0;orthogonalLoop=1;jettySize=auto;html=1;entryX=0;entryY=0.5;entryDx=0;entryDy=0;" parent="1" source="z3XUsXF2Qn8Yz3vl9ZlV-5" target="z3XUsXF2Qn8Yz3vl9ZlV-13" edge="1">
          <mxGeometry relative="1" as="geometry" />
        </mxCell>
        <mxCell id="z3XUsXF2Qn8Yz3vl9ZlV-5" value="LB" style="rounded=1;whiteSpace=wrap;html=1;rotation=-90;" parent="1" vertex="1">
          <mxGeometry x="235" y="265" width="270" height="60" as="geometry" />
        </mxCell>
        <mxCell id="z3XUsXF2Qn8Yz3vl9ZlV-26" value="" style="edgeStyle=orthogonalEdgeStyle;rounded=0;orthogonalLoop=1;jettySize=auto;html=1;" parent="1" source="z3XUsXF2Qn8Yz3vl9ZlV-11" target="z3XUsXF2Qn8Yz3vl9ZlV-21" edge="1">
          <mxGeometry relative="1" as="geometry" />
        </mxCell>
        <mxCell id="z3XUsXF2Qn8Yz3vl9ZlV-11" value="Web Server" style="rounded=1;whiteSpace=wrap;html=1;" parent="1" vertex="1">
          <mxGeometry x="450" y="160" width="120" height="60" as="geometry" />
        </mxCell>
        <mxCell id="z3XUsXF2Qn8Yz3vl9ZlV-27" style="edgeStyle=orthogonalEdgeStyle;rounded=0;orthogonalLoop=1;jettySize=auto;html=1;" parent="1" source="z3XUsXF2Qn8Yz3vl9ZlV-12" target="z3XUsXF2Qn8Yz3vl9ZlV-21" edge="1">
          <mxGeometry relative="1" as="geometry" />
        </mxCell>
        <mxCell id="z3XUsXF2Qn8Yz3vl9ZlV-12" value="Web Server" style="rounded=1;whiteSpace=wrap;html=1;" parent="1" vertex="1">
          <mxGeometry x="450" y="250" width="120" height="60" as="geometry" />
        </mxCell>
        <mxCell id="z3XUsXF2Qn8Yz3vl9ZlV-28" style="edgeStyle=orthogonalEdgeStyle;rounded=0;orthogonalLoop=1;jettySize=auto;html=1;entryX=0.5;entryY=0;entryDx=0;entryDy=0;" parent="1" source="z3XUsXF2Qn8Yz3vl9ZlV-13" target="z3XUsXF2Qn8Yz3vl9ZlV-21" edge="1">
          <mxGeometry relative="1" as="geometry" />
        </mxCell>
        <mxCell id="z3XUsXF2Qn8Yz3vl9ZlV-13" value="Web Server" style="rounded=1;whiteSpace=wrap;html=1;" parent="1" vertex="1">
          <mxGeometry x="450" y="370" width="120" height="60" as="geometry" />
        </mxCell>
        <mxCell id="z3XUsXF2Qn8Yz3vl9ZlV-14" value="..." style="text;html=1;strokeColor=none;fillColor=none;align=center;verticalAlign=middle;whiteSpace=wrap;rounded=0;rotation=-90;" parent="1" vertex="1">
          <mxGeometry x="490" y="330" width="40" height="20" as="geometry" />
        </mxCell>
        <mxCell id="z3XUsXF2Qn8Yz3vl9ZlV-18" style="edgeStyle=orthogonalEdgeStyle;rounded=0;orthogonalLoop=1;jettySize=auto;html=1;entryX=0;entryY=0.5;entryDx=0;entryDy=0;" parent="1" source="z3XUsXF2Qn8Yz3vl9ZlV-21" target="z3XUsXF2Qn8Yz3vl9ZlV-22" edge="1">
          <mxGeometry relative="1" as="geometry" />
        </mxCell>
        <mxCell id="z3XUsXF2Qn8Yz3vl9ZlV-19" style="edgeStyle=orthogonalEdgeStyle;rounded=0;orthogonalLoop=1;jettySize=auto;html=1;entryX=0;entryY=0.5;entryDx=0;entryDy=0;" parent="1" source="z3XUsXF2Qn8Yz3vl9ZlV-21" target="z3XUsXF2Qn8Yz3vl9ZlV-23" edge="1">
          <mxGeometry relative="1" as="geometry" />
        </mxCell>
        <mxCell id="z3XUsXF2Qn8Yz3vl9ZlV-20" style="edgeStyle=orthogonalEdgeStyle;rounded=0;orthogonalLoop=1;jettySize=auto;html=1;entryX=0;entryY=0.5;entryDx=0;entryDy=0;" parent="1" source="z3XUsXF2Qn8Yz3vl9ZlV-21" target="z3XUsXF2Qn8Yz3vl9ZlV-24" edge="1">
          <mxGeometry relative="1" as="geometry" />
        </mxCell>
        <mxCell id="z3XUsXF2Qn8Yz3vl9ZlV-21" value="LB" style="rounded=1;whiteSpace=wrap;html=1;rotation=-90;" parent="1" vertex="1">
          <mxGeometry x="520" y="265" width="270" height="60" as="geometry" />
        </mxCell>
        <mxCell id="z3XUsXF2Qn8Yz3vl9ZlV-22" value="APP Server" style="rounded=1;whiteSpace=wrap;html=1;" parent="1" vertex="1">
          <mxGeometry x="735" y="160" width="120" height="60" as="geometry" />
        </mxCell>
        <mxCell id="z3XUsXF2Qn8Yz3vl9ZlV-23" value="APP Server" style="rounded=1;whiteSpace=wrap;html=1;" parent="1" vertex="1">
          <mxGeometry x="735" y="250" width="120" height="60" as="geometry" />
        </mxCell>
        <mxCell id="z3XUsXF2Qn8Yz3vl9ZlV-24" value="APP Server" style="rounded=1;whiteSpace=wrap;html=1;" parent="1" vertex="1">
          <mxGeometry x="735" y="370" width="120" height="60" as="geometry" />
        </mxCell>
        <mxCell id="z3XUsXF2Qn8Yz3vl9ZlV-25" value="..." style="text;html=1;strokeColor=none;fillColor=none;align=center;verticalAlign=middle;whiteSpace=wrap;rounded=0;rotation=-90;" parent="1" vertex="1">
          <mxGeometry x="775" y="330" width="40" height="20" as="geometry" />
        </mxCell>
        <mxCell id="P-YQNoCspB-iHP5CTMSX-4" style="edgeStyle=orthogonalEdgeStyle;rounded=0;orthogonalLoop=1;jettySize=auto;html=1;entryX=0.5;entryY=1;entryDx=0;entryDy=0;" edge="1" parent="1" source="P-YQNoCspB-iHP5CTMSX-1" target="P-YQNoCspB-iHP5CTMSX-2">
          <mxGeometry relative="1" as="geometry" />
        </mxCell>
        <mxCell id="P-YQNoCspB-iHP5CTMSX-1" value="cache" style="rounded=1;whiteSpace=wrap;html=1;" vertex="1" parent="1">
          <mxGeometry x="455" y="500" width="120" height="60" as="geometry" />
        </mxCell>
      </root>
    </mxGraphModel>
  </diagram>
</mxfile>
